<?xml version="1.0" standalone="no"?>
<!DOCTYPE svg PUBLIC "-//W3C//DTD SVG 20010904//EN"
 "http://www.w3.org/TR/2001/REC-SVG-20010904/DTD/svg10.dtd">
<svg version="1.0" xmlns="http://www.w3.org/2000/svg"
 width="280.000000pt" height="280.000000pt" viewBox="0 0 280.000000 280.000000"
 preserveAspectRatio="xMidYMid meet">
<metadata>
Created by potrace 1.14, written by Peter Selinger 2001-2017
</metadata>
<g transform="translate(0.000000,280.000000) scale(0.100000,-0.100000)"
fill="#000000" stroke="none">
<path d="M1295 2585 c-27 -9 -72 -23 -100 -31 -27 -8 -57 -18 -65 -21 -8 -3
-24 -8 -35 -10 -11 -2 -49 -12 -85 -23 -36 -11 -74 -22 -85 -25 -11 -2 -51
-14 -90 -25 -38 -12 -79 -24 -90 -27 -11 -3 -58 -17 -105 -30 -47 -14 -98 -29
-115 -33 -176 -47 -262 -79 -267 -99 -10 -40 2 -281 22 -441 12 -96 24 -178
26 -181 2 -4 6 -24 9 -45 22 -174 127 -497 227 -699 115 -235 341 -491 539
-610 83 -50 249 -129 249 -118 0 3 7 0 15 -7 17 -14 121 -8 152 9 10 6 54 27
98 48 230 108 463 327 596 560 78 135 157 312 194 436 20 66 55 194 61 227 3
14 12 51 20 82 8 31 17 79 20 105 3 26 9 64 14 83 5 19 12 73 15 120 4 47 11
107 16 134 14 76 12 302 -3 314 -7 5 -29 15 -48 21 -35 11 -181 54 -190 56 -3
1 -23 7 -45 13 -22 7 -80 24 -130 38 -49 14 -128 37 -175 51 -47 14 -98 29
-115 33 -80 22 -149 42 -240 70 -121 38 -220 46 -290 25z"/>
</g>
</svg>
